<?xml version="1.0" standalone="no"?>
<!DOCTYPE svg PUBLIC "-//W3C//DTD SVG 20010904//EN"
 "http://www.w3.org/TR/2001/REC-SVG-20010904/DTD/svg10.dtd">
<svg version="1.0" xmlns="http://www.w3.org/2000/svg"
 width="1280.000000pt" height="1266.000000pt" viewBox="0 0 1280.000000 1266.000000"
 preserveAspectRatio="xMidYMid meet">
<g transform="translate(0.000000,1266.000000) scale(0.100000,-0.100000)"
fill="#ffffff" stroke="none">
<path d="M6012 12640 c-9 -15 -19 -19 -36 -14 -20 5 -25 0 -35 -27 -14 -40
-14 -142 0 -191 10 -40 28 -48 49 -23 8 9 21 13 35 9 35 -9 45 21 45 125 0
121 -25 173 -58 121z"/>
<path d="M6630 12643 c-19 -8 -50 -22 -68 -29 -93 -40 -95 -195 -2 -234 28
-12 40 -11 100 9 76 24 113 49 135 91 34 66 8 136 -62 165 -43 18 -58 18 -103
-2z"/>
<path d="M7332 12593 c-17 -22 -23 -25 -31 -14 -18 28 -39 1 -61 -79 -33 -126
-36 -148 -15 -156 10 -4 26 -2 36 4 10 7 27 12 36 12 35 0 43 17 58 123 19
124 12 157 -23 110z"/>
<path d="M5360 12540 c-8 -15 -17 -18 -39 -14 -23 5 -29 2 -34 -18 -18 -63 2
-205 30 -215 7 -3 22 2 33 12 15 14 23 15 33 6 26 -21 42 15 41 94 -2 113 -37
186 -64 135z"/>
<path d="M7976 12463 c-18 -24 -20 -24 -32 -9 -11 15 -14 14 -31 -11 -47 -67
-73 -176 -49 -208 12 -17 17 -18 37 -8 13 7 35 13 48 15 18 2 28 13 38 42 16
48 30 206 17 206 -5 0 -18 -12 -28 -27z"/>
<path d="M4701 12386 c-6 -7 -22 -11 -36 -8 -36 6 -42 -20 -21 -102 20 -79 53
-146 72 -146 6 0 15 12 18 26 6 24 8 25 25 10 10 -9 23 -16 29 -16 17 0 15 82
-2 148 -24 89 -56 123 -85 88z"/>
<path d="M8626 12295 c-11 -8 -28 -13 -37 -10 -31 10 -112 -125 -126 -209 -6
-41 13 -56 50 -38 12 6 34 13 48 16 27 6 47 41 83 149 17 50 21 107 9 107 -5
0 -17 -7 -27 -15z"/>
<path d="M4086 12165 c-7 -29 -18 -32 -36 -10 -24 29 -33 16 -27 -42 8 -81 54
-167 90 -171 15 -2 27 1 27 7 0 6 16 11 35 11 34 0 35 1 29 28 -20 83 -81 202
-104 202 -4 0 -11 -11 -14 -25z"/>
<path d="M9230 12015 c-8 -9 -21 -13 -35 -9 -19 5 -30 -3 -59 -43 -54 -73 -77
-124 -65 -140 8 -9 16 -10 31 -2 11 6 32 12 46 14 14 1 36 16 49 31 24 30 63
123 63 149 0 19 -14 19 -30 0z"/>
<path d="M5920 12004 c-47 -8 -98 -19 -113 -25 l-28 -12 21 -22 c39 -42 102
-204 271 -698 l44 -129 -29 -81 c-54 -154 -213 -562 -240 -614 -14 -29 -26
-55 -26 -58 0 -13 102 -2 160 18 71 24 63 13 110 162 12 39 40 108 61 154 32
70 41 82 53 72 29 -24 114 -263 131 -363 4 -29 12 -39 29 -44 31 -7 192 1 233
12 l31 9 -84 230 c-166 449 -168 457 -168 570 0 113 6 134 121 420 105 259
167 364 206 350 23 -10 35 -51 41 -150 7 -118 -9 -695 -30 -1050 -23 -406 -20
-425 82 -425 30 0 74 5 99 12 60 16 61 21 75 338 22 506 60 1008 86 1133 18
87 29 107 58 107 43 0 49 -21 43 -143 -7 -138 -64 -618 -118 -987 -67 -459
-66 -448 -46 -467 12 -12 35 -17 94 -17 116 0 145 11 159 59 13 47 35 191 70
465 110 869 135 1009 189 1060 14 13 25 29 25 36 0 24 -126 38 -525 59 -369
19 -471 19 -538 -2 l-55 -16 -5 -61 c-9 -107 -113 -402 -139 -394 -36 12 -108
273 -114 408 l-4 95 -72 2 c-40 1 -111 -5 -158 -13z"/>
<path d="M3475 11909 c-87 -28 -110 -55 -110 -128 0 -48 5 -64 28 -94 40 -53
61 -62 111 -47 106 31 176 93 176 158 0 49 -32 100 -75 118 -44 18 -56 17
-130 -7z"/>
<path d="M9702 11732 c-73 -23 -106 -62 -99 -115 6 -41 48 -112 79 -130 16
-11 52 -3 131 26 87 31 92 178 7 222 -35 18 -50 18 -118 -3z"/>
<path d="M4283 11600 c-76 -27 -210 -91 -368 -176 -185 -100 -181 -96 -160
-127 29 -45 55 -179 71 -364 6 -75 5 -83 -11 -83 -10 0 -80 62 -156 139 -120
119 -139 143 -139 170 0 17 -4 31 -8 31 -28 0 -147 -48 -225 -92 -134 -74
-137 -77 -82 -97 61 -22 254 -171 482 -373 180 -160 208 -195 227 -276 41
-182 91 -605 80 -680 -6 -42 -5 -45 12 -37 11 4 33 11 50 15 33 8 133 70 154
95 10 12 9 23 -4 55 -35 88 -85 365 -68 382 21 21 260 -211 283 -276 9 -25 18
-35 29 -32 8 3 34 10 58 17 36 10 45 10 58 -2 26 -26 34 -171 34 -609 1 -506
7 -600 50 -687 17 -34 44 -73 60 -86 16 -14 36 -42 45 -63 9 -21 42 -72 73
-114 32 -41 83 -111 114 -155 140 -202 918 -1407 918 -1423 0 -5 -22 -56 -49
-113 -27 -57 -54 -128 -60 -157 -6 -29 -11 -133 -11 -231 l0 -178 -332 -270
c-183 -148 -430 -347 -549 -442 -120 -94 -220 -178 -223 -187 -8 -20 4 -37
127 -173 126 -140 295 -288 448 -390 134 -91 201 -121 230 -103 10 7 27 12 38
12 42 0 102 92 318 490 247 453 414 730 439 730 26 0 69 -28 82 -52 6 -12 18
-52 26 -88 8 -36 55 -216 104 -400 79 -295 127 -490 190 -775 l18 -80 35 3
c59 5 229 53 354 99 228 85 540 250 602 319 31 34 20 59 -102 228 -56 77 -233
323 -394 546 -161 223 -295 411 -298 417 -3 7 15 59 40 115 67 152 72 172 72
288 0 82 -6 122 -24 182 -21 67 -22 81 -11 108 20 48 43 74 493 554 234 248
758 808 1165 1245 l740 793 305 567 c527 978 654 1222 722 1385 39 93 43 130
19 164 -14 20 -17 21 -37 7 -12 -8 -31 -15 -44 -15 -32 0 -120 -114 -153 -200
-7 -19 -45 -68 -84 -109 -196 -203 -1132 -1031 -1166 -1031 -7 0 -10 7 -6 16
16 43 310 513 514 823 52 79 119 169 148 199 52 54 53 56 36 75 -23 26 -162
107 -183 107 -9 0 -22 -6 -28 -14 -6 -7 -21 -11 -34 -9 -19 4 -26 -4 -50 -52
-59 -120 -504 -849 -718 -1176 -60 -91 -109 -170 -109 -176 0 -6 16 -23 35
-37 21 -16 35 -36 35 -48 0 -33 -54 -118 -224 -353 -103 -142 -1512 -2023
-1585 -2115 -237 -301 -278 -332 -341 -265 -34 36 -63 125 -459 1430 -206 678
-235 765 -273 822 -13 18 -81 80 -153 136 -238 187 -660 547 -703 600 -26 31
-9 51 84 97 100 50 144 76 144 88 0 5 -12 12 -26 18 -20 7 -30 23 -46 69 -11
33 -72 173 -135 310 -329 714 -433 960 -433 1029 0 31 -3 36 -22 35 -13 0 -46
-9 -75 -19z m-181 -203 c32 -25 56 -58 95 -132 109 -208 503 -1057 533 -1148
15 -48 3 -65 -31 -47 -86 45 -409 317 -517 435 -102 112 -127 181 -166 476
-43 321 -45 399 -10 434 23 23 48 18 96 -18z m2232 -4943 c9 -3 25 -21 36 -39
19 -31 20 -36 6 -63 -22 -43 -39 -45 -75 -8 -34 36 -39 61 -15 94 16 23 23 26
48 16z"/>
<path d="M2923 11528 c3 -21 3 -38 0 -38 -3 0 -21 11 -40 26 -44 33 -44 13 -2
-67 56 -105 119 -159 119 -102 0 8 6 13 13 10 48 -20 47 -20 47 9 0 34 -46
106 -101 159 l-42 40 6 -37z"/>
<path d="M2380 11144 c0 -13 -7 -15 -35 -10 -26 5 -35 3 -35 -7 0 -14 68 -116
103 -154 21 -23 67 -32 67 -13 0 6 14 10 30 10 43 0 47 22 12 73 -58 84 -142
144 -142 101z"/>
<path d="M10808 10924 c-74 -23 -203 -172 -174 -202 4 -3 16 -1 26 6 11 7 31
12 46 12 19 0 48 22 110 83 113 111 111 137 -8 101z"/>
<path d="M1880 10716 c0 -22 -17 -28 -39 -16 -25 13 -35 -1 -27 -35 7 -29 112
-144 141 -155 13 -5 26 -3 36 6 9 8 27 13 40 12 18 -2 25 2 27 20 3 17 -16 42
-75 102 -77 78 -103 95 -103 66z"/>
<path d="M11285 10468 c-63 -21 -100 -44 -166 -106 -66 -61 -80 -84 -60 -96
14 -9 124 28 176 59 52 30 105 97 105 132 0 25 -8 26 -55 11z"/>
<path d="M1440 10214 c0 -12 -7 -14 -29 -9 -43 9 -45 -8 -8 -56 50 -67 135
-132 161 -124 11 4 34 9 49 12 45 9 44 30 -4 79 -88 90 -169 137 -169 98z"/>
<path d="M11670 9938 c-14 -5 -41 -17 -60 -25 -44 -18 -190 -113 -190 -123 0
-4 8 -18 18 -30 17 -22 19 -22 71 -6 119 35 258 147 234 189 -6 10 -43 8 -73
-5z"/>
<path d="M1101 9719 c-64 -22 -92 -46 -116 -100 -24 -52 -9 -104 43 -155 39
-37 41 -38 123 -16 65 17 149 98 149 144 0 26 -59 108 -92 128 -38 23 -37 23
-107 -1z"/>
<path d="M1842 9685 c-12 -9 -27 -13 -33 -10 -6 4 -22 -4 -36 -16 -35 -32
-113 -138 -113 -153 0 -7 18 -20 39 -30 67 -29 311 -312 311 -360 0 -17 -5
-18 -47 -12 -92 12 -298 67 -338 89 -25 14 -41 31 -43 45 -4 27 -14 28 -37 2
-13 -14 -22 -17 -30 -10 -10 8 -22 0 -46 -29 -35 -41 -174 -279 -167 -286 5
-5 64 10 104 26 27 11 53 8 180 -15 259 -47 579 -128 652 -165 99 -51 450
-477 468 -569 8 -37 7 -37 39 -16 13 9 29 13 35 9 16 -10 47 21 84 85 50 86
50 85 0 115 -24 14 -74 61 -110 103 -67 79 -144 187 -144 203 0 12 51 11 108
-2 88 -20 230 -70 242 -85 14 -16 41 -19 55 -5 6 5 23 11 40 13 25 3 39 17 92
98 35 52 62 99 60 105 -2 5 -105 29 -228 51 -280 52 -465 97 -547 135 -77 35
-138 95 -305 299 -135 166 -242 320 -254 368 -8 31 -9 32 -31 17z"/>
<path d="M11917 9440 c-73 -28 -115 -60 -137 -106 -26 -53 -25 -93 3 -135 32
-48 75 -57 162 -34 78 21 112 45 131 92 22 51 -9 140 -62 182 -31 25 -34 25
-97 1z"/>
<path d="M11300 9345 c-8 -10 -22 -14 -35 -11 -16 4 -27 -2 -43 -24 -34 -45
-133 -108 -552 -347 -473 -271 -831 -480 -847 -496 -10 -10 -5 -25 27 -73 53
-81 75 -101 95 -84 9 7 26 13 38 14 12 1 74 35 137 77 204 135 751 449 1030
592 151 77 157 79 212 74 44 -4 58 -2 62 10 4 11 14 13 36 8 16 -4 30 -3 30 2
-1 15 -155 266 -166 270 -6 2 -17 -4 -24 -12z"/>
<path d="M726 9094 c-4 -11 -13 -14 -30 -10 -59 15 -33 -48 36 -88 24 -13 64
-31 89 -39 41 -14 50 -14 99 2 30 10 55 22 57 28 6 18 -43 49 -137 87 -103 41
-106 42 -114 20z"/>
<path d="M11489 9004 c-8 -9 -21 -13 -35 -10 -18 5 -26 -1 -43 -29 -41 -69
-163 -139 -886 -508 -291 -148 -534 -273 -538 -277 -9 -8 53 -140 75 -158 11
-9 23 -9 49 1 19 6 306 147 639 312 333 165 652 320 710 344 58 24 114 48 125
53 12 5 30 11 40 12 30 5 22 47 -24 142 -41 81 -76 134 -91 134 -4 0 -13 -7
-21 -16z"/>
<path d="M12270 8764 c-122 -33 -249 -109 -224 -134 14 -14 128 21 219 66 85
41 107 61 84 75 -17 11 -12 11 -79 -7z"/>
<path d="M466 8471 c-4 -6 -18 -11 -32 -11 -52 0 -19 -35 76 -79 65 -31 123
-40 135 -21 3 6 17 10 30 10 60 0 33 45 -47 80 -60 26 -152 38 -162 21z"/>
<path d="M12478 8150 c-122 -21 -218 -60 -218 -89 0 -38 43 -35 196 14 92 29
138 59 114 75 -17 11 -26 11 -92 0z"/>
<path d="M274 7837 c-17 -7 -32 -16 -34 -22 -1 -5 19 -21 46 -35 52 -27 126
-32 194 -14 78 22 16 70 -100 78 -46 3 -87 0 -106 -7z"/>
<path d="M12532 7480 c-86 -23 -124 -40 -130 -59 -4 -11 8 -13 68 -7 157 16
309 87 183 85 -27 0 -81 -9 -121 -19z"/>
<path d="M210 7190 c-66 -10 -130 -29 -130 -40 0 -26 198 -44 278 -25 38 9 51
30 31 50 -17 15 -118 24 -179 15z"/>
<path d="M754 7091 c-8 -36 -26 -40 -46 -9 -14 21 -15 19 -27 -42 -7 -36 -13
-94 -14 -130 -2 -54 1 -64 13 -60 8 3 38 5 65 5 41 0 73 -11 180 -63 283 -137
291 -165 67 -223 -124 -33 -201 -37 -238 -13 -24 16 -26 16 -40 -5 -12 -17
-19 -19 -34 -11 -41 22 -45 -12 -45 -370 0 -332 4 -385 27 -362 7 7 24 12 38
12 14 0 31 5 36 10 29 29 281 48 889 65 543 16 563 17 668 42 l67 17 -1 155
c-1 86 -4 183 -8 215 l-6 60 -50 19 c-27 11 -104 42 -170 69 -237 98 -255 112
-197 142 31 16 232 70 297 80 76 12 128 31 142 53 15 23 41 208 31 219 -7 6
-69 -11 -108 -31 -67 -34 -694 -205 -752 -205 -14 0 -88 27 -164 61 -448 196
-535 240 -583 295 l-31 35 -6 -30z m1056 -681 c277 -113 382 -163 426 -205 38
-36 42 -50 16 -64 -32 -17 -510 -34 -967 -35 -443 -1 -451 -1 -498 21 -54 25
-73 58 -56 97 14 31 94 67 299 134 301 100 513 160 535 152 11 -4 121 -49 245
-100z m-1112 -224 c2 -15 1 -35 -2 -43 -9 -24 -36 3 -36 37 0 49 33 54 38 6z
m1628 8 c7 -27 -7 -50 -25 -40 -6 4 -11 20 -11 37 0 37 27 40 36 3z"/>
<path d="M12575 6828 c-75 -21 -102 -39 -90 -58 19 -30 275 32 275 66 0 21
-101 17 -185 -8z"/>
<path d="M12078 6725 c-119 -33 -588 -55 -1160 -55 -274 0 -429 -4 -433 -10
-3 -5 -17 -10 -31 -10 -24 0 -24 0 -24 -105 0 -58 3 -105 8 -105 4 0 39 7 77
16 150 34 1394 29 1515 -6 29 -8 37 -7 47 6 8 11 20 14 36 10 21 -5 25 -2 31
25 13 66 3 251 -13 248 -3 -1 -27 -7 -53 -14z"/>
<path d="M134 6645 c-64 -21 -80 -32 -98 -69 -38 -81 -4 -168 72 -182 50 -10
160 20 194 54 52 48 47 121 -12 177 -34 33 -95 41 -156 20z"/>
<path d="M10485 6300 c-3 -6 -17 -10 -31 -10 -24 0 -24 -1 -24 -90 l0 -90 148
0 c214 0 854 -18 1092 -31 237 -12 336 -24 366 -44 25 -16 37 -65 24 -99 -8
-21 -17 -25 -75 -31 -99 -11 -948 34 -1250 66 -55 6 -126 13 -158 16 -66 7
-133 -10 -159 -40 -14 -14 -18 -37 -18 -92 l0 -72 183 -6 c363 -12 1304 -98
1410 -129 28 -9 41 -8 49 0 7 7 22 12 35 12 37 0 53 38 63 151 11 119 12 446
2 471 -7 16 -62 18 -829 23 -543 3 -824 2 -828 -5z m1639 -266 c18 -48 -5
-117 -34 -99 -11 7 -14 98 -3 108 11 12 31 7 37 -9z"/>
<path d="M12595 6279 c-76 -24 -105 -57 -105 -117 0 -37 6 -50 34 -78 39 -39
68 -43 154 -18 58 17 122 69 122 100 0 35 -43 103 -75 118 -41 20 -54 19 -130
-5z"/>
<path d="M150 5890 c-82 -10 -135 -29 -121 -43 20 -20 171 -20 236 0 119 37
51 62 -115 43z"/>
<path d="M12476 5542 c-60 -22 -68 -37 -25 -46 47 -9 165 -7 191 3 13 5 32 12
43 16 19 6 18 8 -8 21 -44 24 -144 27 -201 6z"/>
<path d="M203 5255 c-70 -19 -123 -42 -123 -53 0 -25 109 -29 195 -7 90 23
115 35 115 56 0 17 -8 19 -67 18 -38 0 -91 -7 -120 -14z"/>
<path d="M2465 5030 c-11 -4 -74 -32 -140 -61 -280 -122 -1044 -404 -1227
-454 -51 -14 -107 -30 -124 -35 -17 -6 -38 -10 -47 -10 -9 0 -17 -2 -17 -5 0
-44 335 -769 472 -1023 58 -107 63 -113 87 -107 14 3 33 7 42 9 9 1 47 18 85
38 110 57 596 228 650 228 8 0 14 -9 14 -21 0 -32 -409 -442 -549 -550 l-34
-27 23 -45 c28 -55 105 -156 127 -164 9 -4 19 1 25 11 7 13 17 16 38 11 23 -5
29 -2 34 18 10 40 136 183 627 707 341 364 393 424 380 428 -18 6 -154 -36
-751 -233 -322 -106 -608 -198 -636 -205 -51 -13 -84 -9 -84 9 0 18 212 142
675 396 326 179 605 338 662 377 l42 28 -33 73 c-204 439 -266 571 -280 592
-17 26 -28 29 -61 15z m118 -225 c8 -19 -13 -31 -24 -14 -13 20 -11 29 5 29 8
0 16 -7 19 -15z m-63 -30 c0 -26 -89 -91 -186 -134 -374 -166 -870 -376 -1068
-453 -73 -28 -82 -30 -105 -17 -34 19 -49 62 -30 85 8 10 46 32 84 49 162 74
930 380 1165 465 106 38 140 39 140 5z m110 -270 c6 -8 9 -22 6 -33 -9 -28
-141 -110 -376 -232 -118 -62 -325 -170 -460 -240 -316 -165 -409 -210 -436
-210 -30 0 -72 38 -80 73 -11 48 39 82 342 226 470 225 933 431 970 431 12 0
27 -7 34 -15z m-1535 -307 c13 -33 12 -48 -5 -48 -16 0 -43 49 -36 65 9 24 26
17 41 -17z m165 -358 c24 -47 25 -60 6 -60 -21 0 -46 40 -46 72 0 39 16 35 40
-12z"/>
<path d="M12345 4918 c-16 -6 -36 -12 -42 -14 -19 -5 -16 -22 6 -33 41 -23
130 -29 186 -13 53 15 65 25 46 36 -8 5 -166 38 -166 35 0 -1 -13 -6 -30 -11z"/>
<path d="M10156 4735 c-11 -8 -30 -15 -41 -15 -12 0 -29 -8 -38 -18 -19 -20
-77 -132 -77 -147 0 -6 66 -43 148 -84 186 -92 578 -297 792 -414 376 -205
453 -259 467 -329 l6 -30 19 31 c22 35 33 38 46 15 7 -13 15 -6 40 37 53 94
135 259 131 264 -3 2 -23 -2 -44 -10 -22 -8 -51 -14 -65 -15 -42 0 -400 182
-965 493 -240 132 -358 201 -375 222 -15 18 -20 18 -44 0z"/>
<path d="M390 4626 c-75 -26 -146 -61 -155 -76 -11 -17 34 -11 144 21 98 28
141 50 141 71 0 15 -64 7 -130 -16z"/>
<path d="M9985 4440 c-3 -5 -19 -10 -35 -10 -25 0 -34 -8 -64 -62 -58 -105
-58 -107 32 -150 127 -61 806 -468 1067 -641 155 -102 208 -152 203 -192 -6
-49 -28 -52 -109 -13 -119 56 -947 592 -1137 735 -84 63 -100 71 -117 54 -6
-5 -21 -11 -35 -13 -18 -2 -39 -24 -78 -81 l-52 -79 152 -95 c245 -153 872
-573 1004 -671 135 -101 174 -148 155 -188 -6 -13 -18 -24 -26 -24 -43 0 -877
567 -1193 811 -75 58 -95 69 -107 59 -8 -6 -26 -13 -40 -15 -34 -3 -62 -31
-105 -101 -29 -48 -32 -59 -20 -66 107 -63 152 -92 271 -174 353 -245 811
-589 921 -692 42 -40 69 -74 73 -93 7 -31 25 -38 44 -15 7 8 20 12 30 9 22 -6
55 31 145 160 125 180 496 770 496 790 0 3 -25 3 -56 1 -52 -5 -63 -1 -187 60
-167 81 -976 554 -1152 672 -52 36 -70 41 -80 24z m1265 -1057 c0 -5 -4 -15
-10 -23 -11 -18 -25 -7 -17 15 6 15 27 21 27 8z"/>
<path d="M12160 4300 c-8 -5 -26 -10 -39 -10 -47 0 7 -38 91 -65 85 -27 118
-31 118 -15 0 6 14 10 31 10 47 0 32 21 -41 57 -66 33 -130 42 -160 23z"/>
<path d="M635 4031 c-123 -42 -185 -78 -185 -108 0 -20 20 -16 138 22 108 35
152 63 152 98 0 22 -10 21 -105 -12z"/>
<path d="M11915 3710 c-3 -5 -18 -10 -31 -10 -16 0 -24 -5 -22 -12 5 -16 82
-55 126 -64 28 -6 31 -4 26 11 -6 15 -2 17 37 11 l44 -7 -30 26 c-57 48 -134
71 -150 45z"/>
<path d="M823 3509 c-72 -23 -123 -72 -123 -119 0 -38 59 -105 106 -120 48
-16 146 13 180 53 46 55 23 161 -41 191 -40 19 -44 19 -122 -5z"/>
<path d="M11633 3181 c-72 -23 -93 -45 -93 -96 0 -45 28 -97 68 -123 21 -14
22 -13 22 12 0 29 20 35 40 11 20 -24 33 -18 27 12 -7 35 12 80 52 125 37 42
39 63 9 72 -35 9 -68 6 -125 -13z"/>
<path d="M3750 3150 c-8 -5 -26 -10 -39 -10 -33 0 -81 -53 -231 -255 -603
-811 -655 -879 -728 -956 -42 -45 -37 -59 48 -124 74 -57 114 -73 137 -54 8 8
26 12 39 11 13 -2 24 1 24 8 0 24 368 553 700 1005 160 218 200 275 200 288 0
6 -107 86 -122 92 -7 3 -20 0 -28 -5z"/>
<path d="M3960 2995 c-7 -8 -25 -15 -40 -15 -25 0 -47 -29 -231 -302 -318
-474 -566 -835 -635 -928 -50 -67 -61 -87 -51 -97 6 -6 53 -36 102 -67 90 -55
90 -55 106 -35 13 18 19 20 37 10 20 -11 24 -7 50 52 51 112 389 633 656 1012
82 115 155 224 164 243 22 44 12 58 -75 105 -62 33 -72 35 -83 22z"/>
<path d="M1259 2901 c-53 -18 -112 -57 -154 -101 -34 -35 -28 -37 51 -10 99
34 204 116 159 125 -5 1 -31 -5 -56 -14z"/>
<path d="M8370 2702 c0 -38 -14 -41 -48 -9 l-25 22 8 -50 c4 -27 43 -192 86
-365 215 -851 259 -1031 270 -1097 7 -40 17 -73 23 -73 21 0 103 28 143 48 61
31 68 45 44 79 -11 15 -38 89 -61 163 -40 135 -150 558 -150 579 0 31 41 -3
166 -141 267 -292 351 -405 337 -457 -6 -22 -4 -23 28 -17 46 9 147 61 247
126 79 52 104 78 62 65 -11 -3 -35 1 -54 10 -61 29 -309 292 -758 805 -113
129 -231 260 -262 290 l-56 54 0 -32z"/>
<path d="M11252 2605 c6 -29 2 -30 -32 -10 -31 18 -40 18 -40 2 0 -25 103
-108 117 -94 2 3 -3 17 -12 31 -21 31 -8 33 39 5 53 -31 47 -2 -9 50 -51 47
-69 52 -63 16z"/>
<path d="M4420 2605 c-7 -9 -21 -13 -34 -9 -17 4 -52 -27 -186 -163 -241 -245
-830 -860 -862 -901 -44 -54 -35 -78 40 -117 32 -15 35 -15 52 0 12 10 26 14
39 10 16 -5 24 2 40 32 38 73 474 557 495 550 16 -6 13 -19 -85 -364 -92 -326
-103 -355 -138 -387 -41 -37 -26 -61 71 -115 77 -44 114 -53 129 -35 7 8 24
14 38 12 23 -3 26 1 29 32 9 116 219 895 347 1288 30 93 55 172 55 176 0 11
-17 6 -30 -9z"/>
<path d="M1632 2380 c-29 -9 -70 -31 -90 -47 -39 -32 -71 -78 -60 -88 6 -7 84
17 121 36 33 18 107 91 107 105 0 18 -13 17 -78 -6z"/>
<path d="M5875 2304 c-33 -9 -66 -22 -73 -28 -8 -8 -23 -110 -42 -282 -56
-516 -147 -1206 -169 -1281 -12 -41 -2 -50 75 -65 73 -14 396 -16 444 -2 26 7
36 16 38 34 16 129 154 705 173 725 7 6 13 5 19 -4 24 -40 127 -489 149 -655
10 -69 9 -81 -5 -97 -16 -17 -16 -19 0 -25 27 -10 247 3 289 18 37 13 45 25
28 44 -27 28 -95 286 -226 849 -101 438 -144 607 -154 618 -5 5 -13 -5 -19
-22 -12 -35 -31 -41 -39 -11 -5 17 -23 29 -23 15 0 -3 -20 -75 -44 -160 -25
-85 -91 -336 -146 -557 -101 -400 -182 -694 -201 -730 -13 -24 -36 -23 -50 4
-13 24 -7 254 11 423 6 50 23 232 40 405 17 173 42 420 57 548 14 128 23 235
20 238 -14 14 -96 13 -152 -2z"/>
<path d="M10829 2113 c17 -32 123 -123 143 -123 15 0 -47 70 -93 107 -46 37
-65 42 -50 16z"/>
<path d="M10770 2080 c21 -30 119 -110 134 -110 15 0 -39 63 -86 101 -60 47
-77 50 -48 9z"/>
<path d="M2077 1916 c-44 -16 -116 -73 -153 -121 -28 -37 -25 -62 6 -45 10 5
27 10 38 10 27 0 103 61 141 112 46 62 41 69 -32 44z"/>
<path d="M10360 1666 c0 -16 38 -52 46 -43 8 8 -13 44 -31 51 -9 3 -15 0 -15
-8z"/>
<path d="M10290 1646 c0 -16 38 -52 46 -43 8 8 -13 44 -31 51 -9 3 -15 0 -15
-8z"/>
<path d="M2575 1510 c-3 -5 -16 -10 -29 -10 -35 0 -127 -106 -141 -163 -6 -21
-3 -27 8 -27 9 0 19 5 22 10 3 6 19 10 34 10 42 0 161 132 161 180 0 13 -47
13 -55 0z"/>
<path d="M9820 1291 c0 -22 69 -105 70 -83 0 20 -25 65 -49 86 -21 19 -21 19
-21 -3z"/>
<path d="M9750 1268 c0 -18 69 -96 70 -79 0 22 -43 91 -57 91 -7 0 -13 -6 -13
-12z"/>
<path d="M2990 1129 c-66 -23 -90 -45 -93 -84 -2 -26 2 -30 36 -36 42 -7 97
-53 97 -81 0 -22 9 -22 90 5 l65 22 3 42 c4 50 -13 116 -34 138 -21 21 -96 18
-164 -6z"/>
<path d="M9270 969 c-31 -11 -67 -32 -83 -50 -24 -26 -28 -37 -25 -82 3 -48 6
-53 38 -70 32 -15 36 -16 47 -1 6 9 22 14 35 12 15 -2 26 4 33 17 6 10 30 25
55 32 57 17 73 33 65 65 -8 30 -61 83 -90 91 -11 3 -45 -3 -75 -14z"/>
<path d="M3679 824 c-8 -9 -21 -13 -35 -10 -19 5 -28 -1 -50 -39 -48 -83 -65
-182 -18 -110 19 28 34 33 34 9 0 -31 25 -6 62 62 37 67 47 104 29 104 -5 0
-14 -7 -22 -16z"/>
<path d="M8682 679 c1 -13 8 -23 13 -21 15 3 12 35 -3 40 -9 3 -13 -3 -10 -19z"/>
<path d="M8616 671 c-8 -13 4 -42 15 -35 12 7 12 44 0 44 -6 0 -12 -4 -15 -9z"/>
<path d="M4265 570 c-13 -14 -22 -17 -29 -10 -5 5 -14 10 -18 10 -20 0 -96
-195 -82 -209 3 -3 16 6 28 22 25 31 36 34 36 11 0 -32 26 -5 63 65 49 96 51
165 2 111z"/>
<path d="M8085 460 c-8 -13 3 -50 15 -50 12 0 20 28 14 45 -7 17 -20 20 -29 5z"/>
<path d="M8020 426 c0 -27 15 -42 25 -26 8 13 -3 50 -16 50 -5 0 -9 -11 -9
-24z"/>
<path d="M4891 393 c-11 -22 -34 -143 -28 -149 5 -5 43 88 52 127 8 32 -10 47
-24 22z"/>
<path d="M4820 364 c-7 -16 -14 -54 -16 -84 l-5 -55 15 33 c26 57 39 113 27
125 -7 7 -14 1 -21 -19z"/>
<path d="M5516 283 c-13 -33 -19 -130 -8 -137 14 -9 32 49 32 105 0 49 -12 64
-24 32z"/>
<path d="M5451 262 c-6 -11 -11 -49 -11 -84 1 -59 2 -61 14 -38 19 36 29 106
18 126 -9 16 -11 15 -21 -4z"/>
<path d="M6150 240 c-8 -5 -25 -10 -37 -10 -12 0 -39 -14 -59 -32 -58 -52 -68
-108 -18 -108 13 0 32 -9 41 -19 13 -16 20 -17 39 -9 34 16 57 3 50 -27 -4
-14 -2 -25 3 -25 15 0 51 51 51 71 0 11 5 19 10 19 7 0 8 -13 4 -35 -7 -41 7
-47 30 -13 10 14 16 44 16 79 0 49 -4 61 -29 88 -30 32 -71 41 -101 21z"/>
<path d="M6814 236 c-10 -26 -11 -112 -1 -122 25 -26 48 89 23 121 -14 20 -15
20 -22 1z"/>
<path d="M6747 216 c-11 -28 -8 -126 3 -126 27 0 39 94 17 124 -13 18 -14 18
-20 2z"/>
</g>
</svg>
